<svg xmlns="http://www.w3.org/2000/svg" xmlns:xlink="http://www.w3.org/1999/xlink" width="500" zoomAndPan="magnify" viewBox="0 0 375 374.999991" height="500" preserveAspectRatio="xMidYMid meet" version="1.0"><defs><g/><clipPath id="5a46ea07f0"><path d="M 75 0 L 300 0 C 341.421875 0 375 33.578125 375 75 L 375 300 C 375 341.421875 341.421875 375 300 375 L 75 375 C 33.578125 375 0 341.421875 0 300 L 0 75 C 0 33.578125 33.578125 0 75 0 Z M 75 0 " clip-rule="nonzero"/></clipPath><linearGradient x1="128" gradientTransform="matrix(1.464844, 0, 0, 1.464844, 0.0000045, 0)" y1="0" x2="128" gradientUnits="userSpaceOnUse" y2="255.999988" id="52ec861b77"><stop stop-opacity="1" stop-color="rgb(5.899048%, 5.899048%, 5.899048%)" offset="0"/><stop stop-opacity="1" stop-color="rgb(6.033325%, 6.033325%, 6.033325%)" offset="0.03125"/><stop stop-opacity="1" stop-color="rgb(6.30188%, 6.30188%, 6.30188%)" offset="0.0625"/><stop stop-opacity="1" stop-color="rgb(6.570435%, 6.570435%, 6.570435%)" offset="0.09375"/><stop stop-opacity="1" stop-color="rgb(6.840515%, 6.840515%, 6.840515%)" offset="0.125"/><stop stop-opacity="1" stop-color="rgb(7.10907%, 7.10907%, 7.10907%)" offset="0.15625"/><stop stop-opacity="1" stop-color="rgb(7.377625%, 7.377625%, 7.377625%)" offset="0.1875"/><stop stop-opacity="1" stop-color="rgb(7.646179%, 7.646179%, 7.646179%)" offset="0.21875"/><stop stop-opacity="1" stop-color="rgb(7.914734%, 7.914734%, 7.914734%)" offset="0.25"/><stop stop-opacity="1" stop-color="rgb(8.183289%, 8.183289%, 8.183289%)" offset="0.28125"/><stop stop-opacity="1" stop-color="rgb(8.451843%, 8.451843%, 8.451843%)" offset="0.3125"/><stop stop-opacity="1" stop-color="rgb(8.720398%, 8.720398%, 8.720398%)" offset="0.34375"/><stop stop-opacity="1" stop-color="rgb(8.990479%, 8.990479%, 8.990479%)" offset="0.375"/><stop stop-opacity="1" stop-color="rgb(9.259033%, 9.259033%, 9.259033%)" offset="0.40625"/><stop stop-opacity="1" stop-color="rgb(9.527588%, 9.527588%, 9.527588%)" offset="0.4375"/><stop stop-opacity="1" stop-color="rgb(9.796143%, 9.796143%, 9.796143%)" offset="0.46875"/><stop stop-opacity="1" stop-color="rgb(10.064697%, 10.064697%, 10.064697%)" offset="0.5"/><stop stop-opacity="1" stop-color="rgb(10.302734%, 10.302734%, 10.302734%)" offset="0.515625"/><stop stop-opacity="1" stop-color="rgb(10.513306%, 10.513306%, 10.513306%)" offset="0.53125"/><stop stop-opacity="1" stop-color="rgb(10.722351%, 10.722351%, 10.722351%)" offset="0.546875"/><stop stop-opacity="1" stop-color="rgb(10.931396%, 10.931396%, 10.931396%)" offset="0.5625"/><stop stop-opacity="1" stop-color="rgb(11.140442%, 11.140442%, 11.140442%)" offset="0.578125"/><stop stop-opacity="1" stop-color="rgb(11.349487%, 11.349487%, 11.349487%)" offset="0.59375"/><stop stop-opacity="1" stop-color="rgb(11.560059%, 11.560059%, 11.560059%)" offset="0.609375"/><stop stop-opacity="1" stop-color="rgb(11.769104%, 11.769104%, 11.769104%)" offset="0.625"/><stop stop-opacity="1" stop-color="rgb(11.978149%, 11.978149%, 11.978149%)" offset="0.640625"/><stop stop-opacity="1" stop-color="rgb(12.187195%, 12.187195%, 12.187195%)" offset="0.65625"/><stop stop-opacity="1" stop-color="rgb(12.397766%, 12.397766%, 12.397766%)" offset="0.671875"/><stop stop-opacity="1" stop-color="rgb(12.606812%, 12.606812%, 12.606812%)" offset="0.6875"/><stop stop-opacity="1" stop-color="rgb(12.815857%, 12.815857%, 12.815857%)" offset="0.703125"/><stop stop-opacity="1" stop-color="rgb(13.024902%, 13.024902%, 13.024902%)" offset="0.71875"/><stop stop-opacity="1" stop-color="rgb(13.233948%, 13.233948%, 13.233948%)" offset="0.734375"/><stop stop-opacity="1" stop-color="rgb(13.444519%, 13.444519%, 13.444519%)" offset="0.75"/><stop stop-opacity="1" stop-color="rgb(13.653564%, 13.653564%, 13.653564%)" offset="0.765625"/><stop stop-opacity="1" stop-color="rgb(13.86261%, 13.86261%, 13.86261%)" offset="0.78125"/><stop stop-opacity="1" stop-color="rgb(14.071655%, 14.071655%, 14.071655%)" offset="0.796875"/><stop stop-opacity="1" stop-color="rgb(14.280701%, 14.280701%, 14.280701%)" offset="0.8125"/><stop stop-opacity="1" stop-color="rgb(14.491272%, 14.491272%, 14.491272%)" offset="0.828125"/><stop stop-opacity="1" stop-color="rgb(14.700317%, 14.700317%, 14.700317%)" offset="0.84375"/><stop stop-opacity="1" stop-color="rgb(14.909363%, 14.909363%, 14.909363%)" offset="0.859375"/><stop stop-opacity="1" stop-color="rgb(15.118408%, 15.118408%, 15.118408%)" offset="0.875"/><stop stop-opacity="1" stop-color="rgb(15.328979%, 15.328979%, 15.328979%)" offset="0.890625"/><stop stop-opacity="1" stop-color="rgb(15.538025%, 15.538025%, 15.538025%)" offset="0.90625"/><stop stop-opacity="1" stop-color="rgb(15.74707%, 15.74707%, 15.74707%)" offset="0.921875"/><stop stop-opacity="1" stop-color="rgb(15.956116%, 15.956116%, 15.956116%)" offset="0.9375"/><stop stop-opacity="1" stop-color="rgb(16.165161%, 16.165161%, 16.165161%)" offset="0.953125"/><stop stop-opacity="1" stop-color="rgb(16.375732%, 16.375732%, 16.375732%)" offset="0.96875"/><stop stop-opacity="1" stop-color="rgb(16.584778%, 16.584778%, 16.584778%)" offset="0.984375"/><stop stop-opacity="1" stop-color="rgb(16.793823%, 16.793823%, 16.793823%)" offset="1"/></linearGradient><clipPath id="192d8d92a7"><path d="M 32.765625 37.5 L 336.390625 37.5 L 336.390625 341.128906 L 32.765625 341.128906 Z M 32.765625 37.5 " clip-rule="nonzero"/></clipPath><clipPath id="d439a1cc6d"><path d="M 184.578125 37.5 C 100.734375 37.5 32.765625 105.46875 32.765625 189.3125 C 32.765625 273.15625 100.734375 341.128906 184.578125 341.128906 C 268.421875 341.128906 336.390625 273.15625 336.390625 189.3125 C 336.390625 105.46875 268.421875 37.5 184.578125 37.5 Z M 184.578125 37.5 " clip-rule="nonzero"/></clipPath><clipPath id="a6d2cd8678"><path d="M 267.953125 118.003906 L 274.332031 118.003906 L 274.332031 267.296875 L 267.953125 267.296875 Z M 267.953125 118.003906 " clip-rule="nonzero"/></clipPath><clipPath id="ff81366a98"><path d="M 267.953125 116.652344 L 272.554688 116.652344 L 272.554688 265.597656 L 267.953125 265.597656 Z M 267.953125 116.652344 " clip-rule="nonzero"/></clipPath></defs><g clip-path="url(#5a46ea07f0)"><rect x="-37.5" fill="url(#52ec861b77)" width="450" y="-37.499999" height="449.999989"/></g><g clip-path="url(#192d8d92a7)"><g clip-path="url(#d439a1cc6d)"><path fill="#ffffff" d="M 32.765625 37.5 L 336.390625 37.5 L 336.390625 341.128906 L 32.765625 341.128906 Z M 32.765625 37.5 " fill-opacity="1" fill-rule="nonzero"/></g></g><g fill="#a6a6a6" fill-opacity="0.4"><g transform="translate(79.534036, 267.516133)"><g><path d="M 157.296875 0 L 157.09375 -99.03125 L 108 -17.078125 L 95.625 -17.078125 L 46.53125 -97.75 L 46.53125 0 L 20.0625 0 L 20.0625 -149.40625 L 42.90625 -149.40625 L 102.234375 -50.375 L 160.5 -149.40625 L 183.34375 -149.40625 L 183.5625 0 Z M 157.296875 0 "/></g></g></g><g fill="#000000" fill-opacity="1"><g transform="translate(77.647492, 265.629587)"><g><path d="M 157.296875 0 L 157.09375 -99.03125 L 108 -17.078125 L 95.625 -17.078125 L 46.53125 -97.75 L 46.53125 0 L 20.0625 0 L 20.0625 -149.40625 L 42.90625 -149.40625 L 102.234375 -50.375 L 160.5 -149.40625 L 183.34375 -149.40625 L 183.5625 0 Z M 157.296875 0 "/></g></g></g><g clip-path="url(#a6d2cd8678)"><path fill="#d9d9d9" d="M 267.953125 118.003906 L 274.332031 118.003906 L 274.332031 267.289062 L 267.953125 267.289062 Z M 267.953125 118.003906 " fill-opacity="1" fill-rule="nonzero"/></g><g clip-path="url(#ff81366a98)"><path fill="#000000" d="M 267.953125 116.652344 L 272.554688 116.652344 L 272.554688 265.589844 L 267.953125 265.589844 Z M 267.953125 116.652344 " fill-opacity="1" fill-rule="nonzero"/></g></svg>